<?xml version="1.0" encoding="UTF-8" standalone="no"?>
<!-- Created with Inkscape (http://www.inkscape.org/) -->

<svg
   width="10.026363mm"
   height="2.9999015mm"
   viewBox="0 0 10.026612 2.9999759"
   version="1.1"
   id="svg1"
   inkscape:version="1.4.2 (f4327f4, 2025-05-13)"
   sodipodi:docname="logo.svg"
   xml:space="preserve"
   xmlns:inkscape="http://www.inkscape.org/namespaces/inkscape"
   xmlns:sodipodi="http://sodipodi.sourceforge.net/DTD/sodipodi-0.dtd"
   xmlns="http://www.w3.org/2000/svg"
   xmlns:svg="http://www.w3.org/2000/svg"><sodipodi:namedview
     id="namedview1"
     pagecolor="#ffffff"
     bordercolor="#000000"
     borderopacity="0.25"
     inkscape:showpageshadow="2"
     inkscape:pageopacity="0.0"
     inkscape:pagecheckerboard="0"
     inkscape:deskcolor="#d1d1d1"
     inkscape:document-units="px"
     inkscape:zoom="16.428527"
     inkscape:cx="27.330509"
     inkscape:cy="9.8304614"
     inkscape:window-width="1920"
     inkscape:window-height="1017"
     inkscape:window-x="-8"
     inkscape:window-y="-8"
     inkscape:window-maximized="1"
     inkscape:current-layer="layer1"
     showgrid="false" /><defs
     id="defs1" /><g
     inkscape:label="Camada 1"
     inkscape:groupmode="layer"
     id="layer1"
     transform="translate(-67.733107,-127.31693)"><path
       style="font-size:2.82229px;font-family:'Carter One';-inkscape-font-specification:'Carter One';fill:#1e303e;stroke-width:0.24404"
       d="m 69.297097,128.48893 q -0.0055,0.0207 -0.02067,0.0593 -0.01516,0.0386 -0.03445,0.0882 -0.01929,0.0482 -0.04272,0.10336 -0.02343,0.0537 -0.04548,0.10611 -0.0096,0.0234 -0.02343,0.0344 -0.0124,0.011 -0.05237,0.0124 l -0.402397,0.007 -0.04961,0.61187 q -0.0014,0.0124 -0.0069,0.0248 -0.0055,0.011 -0.01654,0.0179 -0.0041,0.003 -0.03307,0.0165 -0.02756,0.0124 -0.07028,0.0303 -0.04272,0.0179 -0.09371,0.0386 -0.05099,0.0207 -0.100599,0.0372 -0.04961,0.0179 -0.09095,0.0289 -0.04134,0.0124 -0.06477,0.0124 -0.02756,0 -0.05099,-0.011 -0.02205,-0.01 -0.02205,-0.0413 -0.0014,-0.0689 0.0028,-0.15159 0.0055,-0.0841 0.0124,-0.1695 0.0069,-0.0868 0.01516,-0.1695 0.0083,-0.0841 0.01378,-0.15297 l 0.0096,-0.11575 q -0.115758,0 -0.165369,-0.006 -0.04961,-0.007 -0.04961,-0.0331 0,-0.0179 0.02067,-0.0469 0.02894,-0.04 0.06477,-0.0965 0.03721,-0.0565 0.07028,-0.11025 0.03445,-0.0537 0.05926,-0.0951 0.02618,-0.0413 0.03307,-0.051 l 0.02618,-0.37897 q -0.02618,0 -0.04548,0.001 -0.01929,0 -0.03583,0.001 -0.01516,0 -0.02894,0.001 -0.01378,0 -0.02894,0 -0.06615,0 -0.09509,-0.007 -0.02756,-0.008 -0.02756,-0.0289 0,-0.01 0.01654,-0.04 0.01654,-0.0303 0.03996,-0.0689 0.02481,-0.04 0.05237,-0.0827 0.02894,-0.0441 0.05099,-0.0813 l 0.08268,-0.14057 0.627022,-0.0221 q 0.121271,-0.004 0.241163,-0.008 0.119892,-0.006 0.220491,-0.01 0.101978,-0.004 0.175015,-0.007 0.07304,-0.004 0.101978,-0.006 0.0014,0 0.0069,0.001 0.0069,0 0.01378,0.004 0.0069,0.003 0.0124,0.011 0.0069,0.008 0.0069,0.0234 0,0.008 -0.01929,0.0551 -0.01929,0.0469 -0.05512,0.13919 l -0.06064,0.15985 q -0.0096,0.0234 -0.02205,0.0358 -0.0124,0.0124 -0.05237,0.0138 -0.04685,0.001 -0.09509,0.004 -0.04823,0.003 -0.09922,0.006 l -0.418934,0.0207 q -0.0083,0.0538 -0.0124,0.0799 -0.0028,0.0262 -0.0041,0.0441 0,0.0165 0,0.0345 0,0.0165 -0.0014,0.0537 -0.0014,0.0262 -0.0041,0.0441 -0.0014,0.0179 -0.0041,0.0358 -0.0014,0.0165 -0.0041,0.0358 -0.0014,0.0193 -0.0028,0.0482 0.09095,-0.003 0.177772,-0.006 0.0882,-0.003 0.161234,-0.006 0.07442,-0.003 0.128161,-0.004 0.05374,-0.003 0.07579,-0.003 0.01102,0 0.02481,0.008 0.01378,0.008 0.01378,0.0317 0,0.011 -0.0041,0.0248 z m 0.355543,-0.0331 q 0.01654,-0.1888 0.02618,-0.37346 0.01103,-0.18466 0.02343,-0.37897 0.0028,-0.0455 0.0083,-0.062 0.0069,-0.0179 0.03169,-0.0234 0.128161,-0.0234 0.256322,-0.0469 0.129538,-0.0248 0.259077,-0.0648 0.0041,-0.001 0.0124,-0.001 0.01516,0 0.01516,0.0138 l -0.179149,1.96788 v 0.0234 q 0,0.0124 -0.0096,0.0207 -0.0096,0.007 -0.04548,0.0165 l -0.361054,0.13229 q -0.01516,0.007 -0.03996,0.0138 -0.02481,0.008 -0.04823,0.008 -0.01929,0 -0.03445,-0.01 -0.01378,-0.01 -0.01378,-0.0331 v -0.008 q 0.01102,-0.13918 0.02067,-0.27148 0.01102,-0.13367 0.02205,-0.27561 0.0124,-0.14194 0.02618,-0.30042 0.01378,-0.15848 0.03032,-0.34727 z m 1.583404,-0.37208 q 0.130916,0 0.237028,0.0496 0.107489,0.0482 0.183283,0.12678 0.07717,0.0772 0.118514,0.17364 0.04134,0.0965 0.04134,0.19293 0,0.0854 -0.05237,0.17226 -0.05237,0.0854 -0.147454,0.15434 -0.09371,0.0689 -0.226003,0.11162 -0.132295,0.0427 -0.290773,0.0427 -0.08268,0 -0.173637,-0.0165 0.0055,0.0592 0.03445,0.10197 0.02894,0.0427 0.07304,0.0703 0.0441,0.0276 0.09922,0.0413 0.0565,0.0124 0.115758,0.0124 0.06615,0 0.126783,-0.011 0.06201,-0.0124 0.118514,-0.0317 0.0565,-0.0193 0.108868,-0.0427 0.05237,-0.0234 0.09922,-0.0469 0.0124,-0.003 0.02067,-0.004 0.0096,-0.003 0.01792,-0.003 0,0 -0.0014,0.022 0,0.0221 0,0.062 0,0.04 -0.0014,0.0965 0,0.0565 -0.0014,0.12541 0.0041,0.007 0.0055,0.0138 0.0014,0.007 0.0014,0.011 0,0.0165 -0.03032,0.0358 -0.03032,0.0193 -0.07993,0.04 -0.04823,0.0207 -0.111624,0.04 -0.06201,0.0193 -0.126782,0.0344 -0.06477,0.0165 -0.125405,0.0248 -0.06063,0.01 -0.106111,0.01 -0.148832,0 -0.289395,-0.0524 -0.139185,-0.051 -0.248053,-0.14746 -0.10749,-0.0965 -0.172259,-0.23427 -0.06477,-0.13781 -0.06477,-0.31006 0,-0.18053 0.06201,-0.33763 0.06201,-0.15848 0.173637,-0.27562 0.113002,-0.11713 0.268724,-0.18466 0.155722,-0.0675 0.34314,-0.0675 z m -0.01654,0.36656 q -0.0565,0 -0.104734,0.0248 -0.04685,0.0234 -0.08682,0.0689 -0.03859,0.0441 -0.06753,0.10749 -0.02894,0.062 -0.04685,0.13781 0.141941,-0.0248 0.23565,-0.0524 0.09371,-0.0276 0.15021,-0.0551 0.0565,-0.0289 0.07993,-0.0565 0.02343,-0.0289 0.02343,-0.0551 0,-0.0248 -0.01929,-0.0469 -0.01792,-0.0221 -0.04548,-0.0386 -0.02756,-0.0165 -0.06063,-0.0248 -0.0317,-0.01 -0.05788,-0.01 z m 1.590294,-0.36656 q 0.130917,0 0.237028,0.0496 0.10749,0.0482 0.183284,0.12678 0.07717,0.0772 0.118514,0.17364 0.04134,0.0965 0.04134,0.19293 0,0.0854 -0.05237,0.17226 -0.05237,0.0854 -0.147453,0.15434 -0.09371,0.0689 -0.226004,0.11162 -0.132295,0.0427 -0.290773,0.0427 -0.08268,0 -0.173637,-0.0165 0.0055,0.0592 0.03445,0.10197 0.02894,0.0427 0.07304,0.0703 0.0441,0.0276 0.09922,0.0413 0.0565,0.0124 0.115758,0.0124 0.06615,0 0.126782,-0.011 0.06201,-0.0124 0.118514,-0.0317 0.0565,-0.0193 0.108868,-0.0427 0.05237,-0.0234 0.09922,-0.0469 0.0124,-0.003 0.02067,-0.004 0.0096,-0.003 0.01792,-0.003 0,0 -0.0014,0.022 0,0.0221 0,0.062 0,0.04 -0.0014,0.0965 0,0.0565 -0.0014,0.12541 0.0041,0.007 0.0055,0.0138 0.0014,0.007 0.0014,0.011 0,0.0165 -0.03032,0.0358 -0.03032,0.0193 -0.07993,0.04 -0.04823,0.0207 -0.111624,0.04 -0.06201,0.0193 -0.126783,0.0344 -0.06477,0.0165 -0.125404,0.0248 -0.06064,0.01 -0.106112,0.01 -0.148831,0 -0.289395,-0.0524 -0.139185,-0.051 -0.248053,-0.14746 -0.107489,-0.0965 -0.172258,-0.23427 -0.06477,-0.13781 -0.06477,-0.31006 0,-0.18053 0.06201,-0.33763 0.06201,-0.15848 0.173637,-0.27562 0.113002,-0.11713 0.268724,-0.18466 0.155722,-0.0675 0.34314,-0.0675 z m -0.01654,0.36656 q -0.0565,0 -0.104733,0.0248 -0.04685,0.0234 -0.08682,0.0689 -0.03859,0.0441 -0.06753,0.10749 -0.02894,0.062 -0.04686,0.13781 0.141942,-0.0248 0.235651,-0.0524 0.09371,-0.0276 0.150209,-0.0551 0.0565,-0.0289 0.07993,-0.0565 0.02343,-0.0289 0.02343,-0.0551 0,-0.0248 -0.01929,-0.0469 -0.01792,-0.0221 -0.04548,-0.0386 -0.02756,-0.0165 -0.06064,-0.0248 -0.03169,-0.01 -0.05788,-0.01 z m 1.511744,0.10887 q -0.01929,0.1447 -0.03721,0.2894 -0.01654,0.14332 -0.02067,0.26872 0,0.0537 0.0083,0.0896 0.0083,0.0358 0.02343,0.0565 0.01654,0.0207 0.03859,0.0303 0.02205,0.008 0.04961,0.008 0.0441,0 0.09647,-0.0124 0.05237,-0.0138 0.104734,-0.0344 0.01654,-0.007 0.02756,-0.01 0.0124,-0.004 0.02067,-0.004 0.01378,0 0.01792,0.0124 0.0055,0.0124 0.0096,0.0441 0.0055,0.0303 0.01516,0.0827 0.0096,0.0524 0.0317,0.1323 0.0014,0.007 0.0014,0.0124 0.0014,0.004 0.0014,0.008 0,0.0193 -0.01516,0.0276 -0.01378,0.008 -0.04685,0.0193 -0.0565,0.0193 -0.119892,0.04 -0.06201,0.0193 -0.124027,0.0358 -0.06064,0.0165 -0.117136,0.0262 -0.0565,0.011 -0.09922,0.011 -0.230138,0 -0.336249,-0.11438 -0.104734,-0.11438 -0.104734,-0.34865 0,-0.04 0.0028,-0.0813 0.0028,-0.0427 0.0069,-0.0882 0.01378,-0.13781 0.02343,-0.26046 0.01103,-0.12402 0.02205,-0.23702 h -0.144697 q -0.07442,0 -0.10749,-0.006 -0.03307,-0.007 -0.03307,-0.0262 0,-0.006 0.01378,-0.0289 0.01378,-0.0248 0.03445,-0.0579 0.02205,-0.0344 0.04685,-0.073 0.02481,-0.0386 0.04685,-0.0717 0.02343,-0.0344 0.03996,-0.0592 0.01654,-0.0248 0.02067,-0.0303 h 0.09784 q 0.0124,-0.10473 0.01929,-0.17502 0.0083,-0.0717 0.0124,-0.11851 0.0055,-0.0468 0.0096,-0.0717 0.0041,-0.0262 0.0083,-0.0386 0.0055,-0.0124 0.0124,-0.0152 0.0083,-0.004 0.02067,-0.007 0.06201,-0.0124 0.119893,-0.022 0.05788,-0.011 0.115758,-0.0221 0.05788,-0.011 0.117136,-0.0248 0.06064,-0.0152 0.125404,-0.0344 0.0041,0 0.0055,0 0.0014,-0.001 0.0055,-0.001 0.01654,0 0.01654,0.011 v 0.003 q -0.0069,0.0758 -0.02205,0.21085 -0.01378,0.13505 -0.03169,0.30593 h 0.369323 q 0.01102,0 0.02067,0.008 0.01102,0.007 0.01102,0.0248 0,0.007 -0.01654,0.0496 -0.01654,0.0427 -0.04685,0.11163 l -0.04961,0.11162 q -0.0096,0.0207 -0.02067,0.0303 -0.0096,0.01 -0.04134,0.0124 z m 0.698683,1.08317 q 0.0014,-0.0152 0.0055,-0.0648 0.0055,-0.051 0.0124,-0.12816 0.0069,-0.0772 0.01516,-0.1764 0.0096,-0.1006 0.02067,-0.21498 0.01103,-0.11576 0.02205,-0.24116 0.0124,-0.1254 0.02481,-0.25356 h -0.183284 q -0.07442,0 -0.107489,-0.006 -0.03307,-0.007 -0.03307,-0.0262 0,-0.006 0.01378,-0.0289 0.01378,-0.0248 0.03445,-0.0579 0.02205,-0.0344 0.04685,-0.073 0.02481,-0.0386 0.04685,-0.0717 0.02343,-0.0344 0.03996,-0.0592 0.01654,-0.0248 0.02067,-0.0303 h 0.168124 l 0.02756,-0.21911 q 0.01929,-0.17364 0.0689,-0.29216 0.05099,-0.11851 0.125405,-0.19155 0.07579,-0.073 0.172259,-0.10473 0.09647,-0.0317 0.20671,-0.0317 0.110246,0 0.22876,0.0276 0.119892,0.0262 0.241163,0.073 0.02618,0.011 0.03859,0.0193 0.01378,0.007 0.01378,0.0193 0,0.011 -0.0096,0.0289 -0.0441,0.0854 -0.06615,0.13781 -0.02067,0.0524 -0.03307,0.0827 -0.0124,0.0303 -0.02067,0.0413 -0.0083,0.01 -0.02481,0.01 -0.0083,0 -0.01792,-0.004 -0.0083,-0.004 -0.02067,-0.01 -0.04823,-0.0179 -0.09784,-0.0317 -0.04823,-0.0152 -0.09233,-0.0152 -0.06201,0 -0.10749,0.0386 -0.0441,0.0386 -0.07028,0.14607 -0.01516,0.062 -0.02481,0.13368 -0.0096,0.0717 -0.01654,0.14194 h 0.359677 q 0.01102,0 0.02067,0.008 0.01102,0.007 0.01102,0.0248 0,0.007 -0.01654,0.0496 -0.01654,0.0427 -0.04686,0.11163 l -0.04961,0.11162 q -0.0096,0.0207 -0.02067,0.0303 -0.0096,0.01 -0.04134,0.0124 h -0.238406 q -0.01516,0.14332 -0.02894,0.28388 -0.01378,0.14057 -0.02618,0.26459 -0.0124,0.12265 -0.02205,0.21912 -0.0096,0.0951 -0.01516,0.14745 -0.0014,0.004 -0.0014,0.0152 0,0.006 0,0.01 0.0014,0.004 0.0014,0.007 0,0.0124 -0.0096,0.0207 -0.0083,0.007 -0.04548,0.0165 l -0.362432,0.12816 q -0.01516,0.006 -0.03996,0.0138 -0.02481,0.008 -0.04823,0.008 -0.02343,0 -0.03583,-0.011 -0.0124,-0.011 -0.0124,-0.04 z m 1.686759,0.60772 q -0.0028,0.006 -0.0069,0.008 -0.0028,0.004 -0.01102,0.004 -0.0083,0 -0.0124,-0.001 -0.04961,-0.0179 -0.09371,-0.0303 -0.0441,-0.0124 -0.0882,-0.0234 -0.04272,-0.01 -0.0882,-0.0193 -0.04548,-0.008 -0.09646,-0.0193 -0.01378,-0.003 -0.02205,-0.01 -0.0069,-0.006 -0.0069,-0.0207 0,-0.004 0.0041,-0.0207 0.0055,-0.0152 0.02481,-0.0648 0.01929,-0.0482 0.05926,-0.14194 0.03996,-0.0923 0.110246,-0.24943 -0.02067,-0.0689 -0.04686,-0.16537 -0.02618,-0.0965 -0.0565,-0.21085 -0.02894,-0.11438 -0.06064,-0.24116 -0.03169,-0.12816 -0.06477,-0.2577 -0.0317,-0.13091 -0.06477,-0.2577 -0.0317,-0.12816 -0.06201,-0.24392 -0.0096,-0.022 -0.01102,-0.0358 -0.0014,-0.0152 -0.0014,-0.0248 0,-0.0193 0.02205,-0.0248 0.107489,-0.0234 0.223247,-0.0482 0.115758,-0.0262 0.219114,-0.0661 0.0041,-0.001 0.0124,-0.001 0.01792,0 0.01929,0.0138 l 0.168125,0.92606 q 0.0055,-0.0165 0.02067,-0.0593 0.01654,-0.0441 0.03721,-0.10473 0.02205,-0.0606 0.04823,-0.13367 0.02618,-0.073 0.05374,-0.14883 0.02756,-0.0758 0.05375,-0.15021 0.02756,-0.0758 0.05099,-0.14057 0.02343,-0.0648 0.03996,-0.11438 0.01792,-0.0496 0.02756,-0.0744 0.0055,-0.0138 0.02067,-0.0138 0.0041,0 0.0055,0.001 0.0014,0 0.0055,0 0.103355,0.04 0.212223,0.0661 0.108868,0.0248 0.216357,0.0482 0.02618,0.006 0.02618,0.0303 0,0.0179 -0.01654,0.0551 l -0.567766,1.28299 z"
       id="text1"
       aria-label="Fleetfy" /></g></svg>
